# xmcd
#
# Track frame offsets:
# 150
# 20791
# 39737
# 67074
# 81369
# 96321
# 116253
# 128847
# 150184
# 164965
# 185348
#
# Disc length: 2617 seconds
#
#
# Revision: 0
# Processed by: cddbd v1.5.1PL0 Copyright (c) Steve Scherf et al.
# Submitted via: FreeRIP 2.941 
#
DISCID=950a370b
DTITLE=David Olney - Migration
DYEAR=1900
DGENRE=
TTITLE0=The Song
TTITLE1=Speak Memory
TTITLE2=Lenora
TTITLE3=No One Knows What Love Is
TTITLE4=My Lovely Assistant
TTITLE5=Light From Carolina
TTITLE6=All The Same To Me
TTITLE7=Ace Of Spade Blues
TTITLE8=Oh Lord
TTITLE9=Birds
TTITLE10=Upside Down
EXTD=
EXTT0=
EXTT1=
EXTT2=
EXTT3=
EXTT4=
EXTT5=
EXTT6=
EXTT7=
EXTT8=
EXTT9=
EXTT10=
PLAYORDER=
